<?xml version="1.0" encoding="UTF-8" standalone="no"?>
<svg width="39px" height="56px" viewBox="0 0 39 56" version="1.1" xmlns="http://www.w3.org/2000/svg" xmlns:xlink="http://www.w3.org/1999/xlink" xmlns:sketch="http://www.bohemiancoding.com/sketch/ns">
    <!-- Generator: Sketch 3.3.3 (12072) - http://www.bohemiancoding.com/sketch -->
    <title>order_icon</title>
    <desc>Created with Sketch.</desc>
    <defs></defs>
    <g id="Page-1" stroke="none" stroke-width="1" fill="none" fill-rule="evenodd" sketch:type="MSPage">
        <g id="order_icon" sketch:type="MSArtboardGroup" transform="translate(-31.000000, -22.000000)" fill="#000000">
            <g sketch:type="MSLayerGroup" transform="translate(31.000000, 22.000000)" id="Path">
                <path d="M28.8594919,44.2288257 L28.8588603,19.3205204 C28.8588321,18.2048748 29.7643959,17.2993109 30.8800415,17.2993392 L36.0708278,17.2994708 C37.8703315,17.3018504 38.7711952,15.1265977 37.4991403,13.8545428 L27.4720794,3.82748194 C25.0736549,1.42905743 21.7033569,-1.94124059 21.7892793,2.43243911 C21.7892793,2.43243911 21.7308369,18.204694 21.7308652,19.3203396 L21.7291627,44.226311 C21.7315461,46.1751899 23.3116951,47.7553389 25.2582399,47.7553882 C27.2094528,47.7554377 28.8595413,46.1753706 28.8594919,44.2288257 Z" sketch:type="MSShapeGroup"></path>
                <path d="M9.52412594,11.2969277 L9.5247575,36.2052331 C9.52478579,37.3208787 8.61922194,38.2264426 7.50357633,38.2264143 L2.31279005,38.2262827 C0.513286299,38.223903 -0.387577386,40.3991557 0.884477582,41.6712107 L10.9115384,51.6982715 C13.3099629,54.096696 16.6802609,57.4669941 16.5943385,53.0933144 C16.5943385,53.0933144 16.652781,37.3210594 16.6527527,36.2054138 L16.6544552,11.2994425 C16.6520718,9.35056362 15.0719227,7.7704146 13.1253779,7.77036524 C11.1741651,7.77031577 9.52407658,9.35038288 9.52412594,11.2969277 Z" sketch:type="MSShapeGroup"></path>
            </g>
        </g>
    </g>
</svg>