<?xml version="1.0" encoding="UTF-8" standalone="no"?>
<svg width="68px" height="73px" viewBox="0 0 68 73" version="1.1" xmlns="http://www.w3.org/2000/svg" xmlns:xlink="http://www.w3.org/1999/xlink" xmlns:sketch="http://www.bohemiancoding.com/sketch/ns">
    <!-- Generator: Sketch 3.3.3 (12072) - http://www.bohemiancoding.com/sketch -->
    <title>slider_icon</title>
    <desc>Created with Sketch.</desc>
    <defs></defs>
    <g id="Page-1" stroke="none" stroke-width="1" fill="none" fill-rule="evenodd" sketch:type="MSPage">
        <g id="slider_icon" sketch:type="MSArtboardGroup" transform="translate(-17.000000, -17.000000)" fill="#000000">
            <g sketch:type="MSLayerGroup" transform="translate(17.000000, 17.000000)" id="Rectangle-1-+-Shape">
                <g transform="translate(1.000000, 26.000000)" sketch:type="MSShapeGroup">
                    <path d="M26.8355888,5.42857143 L3.31270005,5.42857143 C1.66503632,5.42857143 0.317968747,6.77434051 0.317968747,8.4344308 L0.317968747,11.9227121 C0.317968747,13.5876024 1.65875562,14.9285714 3.31270005,14.9285714 L27.3435471,14.9285714 C26.6172146,13.2661736 26.2142857,11.4301414 26.2142857,9.5 C26.2142857,8.08150654 26.4319088,6.71384166 26.8355888,5.42857143 Z M52.7358398,5.42857143 L64.0052687,5.42857143 C65.6592131,5.42857143 67,6.76954043 67,8.4344308 L67,11.9227121 C67,13.5828023 65.6529324,14.9285714 64.0052687,14.9285714 L52.2278814,14.9285714 C52.9542139,13.2661736 53.3571429,11.4301414 53.3571429,9.5 C53.3571429,8.08150654 53.1395198,6.71384166 52.7358398,5.42857143 Z" id="Rectangle-1"></path>
                    <path d="M39.7857143,13.0625 L39.7857143,13.0625 C41.7532287,13.0625 43.3482143,11.4675144 43.3482143,9.5 C43.3482143,7.53248558 41.7532287,5.9375 39.7857143,5.9375 C37.8181999,5.9375 36.2232143,7.53248558 36.2232143,9.5 C36.2232143,11.4675144 37.8181999,13.0625 39.7857143,13.0625 L39.7857143,13.0625 Z M39.7857143,19 L39.7857143,19 C34.5390092,19 30.2857143,14.7467051 30.2857143,9.5 C30.2857143,4.25329488 34.5390092,0 39.7857143,0 C45.0324194,0 49.2857143,4.25329488 49.2857143,9.5 C49.2857143,14.7467051 45.0324194,19 39.7857143,19 L39.7857143,19 Z" id="Shape"></path>
                </g>
                <g transform="translate(0.500000, 54.000000)" sketch:type="MSShapeGroup">
                    <path d="M13.8355888,5.42857143 L3.31270005,5.42857143 C1.66503632,5.42857143 0.317968747,6.77434051 0.317968747,8.4344308 L0.317968747,11.9227121 C0.317968747,13.5876024 1.65875562,14.9285714 3.31270005,14.9285714 L14.3435471,14.9285714 C13.6172146,13.2661736 13.2142857,11.4301414 13.2142857,9.5 C13.2142857,8.08150654 13.4319088,6.71384166 13.8355888,5.42857143 Z M39.7358398,5.42857143 L64.0052687,5.42857143 C65.6592131,5.42857143 67,6.76954043 67,8.4344308 L67,11.9227121 C67,13.5828023 65.6529324,14.9285714 64.0052687,14.9285714 L39.2278814,14.9285714 C39.9542139,13.2661736 40.3571429,11.4301414 40.3571429,9.5 C40.3571429,8.08150654 40.1395198,6.71384166 39.7358398,5.42857143 Z" id="Rectangle-1"></path>
                    <path d="M26.7857143,13.0625 L26.7857143,13.0625 C28.7532287,13.0625 30.3482143,11.4675144 30.3482143,9.5 C30.3482143,7.53248558 28.7532287,5.9375 26.7857143,5.9375 C24.8181999,5.9375 23.2232143,7.53248558 23.2232143,9.5 C23.2232143,11.4675144 24.8181999,13.0625 26.7857143,13.0625 L26.7857143,13.0625 Z M26.7857143,19 L26.7857143,19 C21.5390092,19 17.2857143,14.7467051 17.2857143,9.5 C17.2857143,4.25329488 21.5390092,0 26.7857143,0 C32.0324194,0 36.2857143,4.25329488 36.2857143,9.5 C36.2857143,14.7467051 32.0324194,19 26.7857143,19 L26.7857143,19 Z" id="Shape"></path>
                </g>
                <g transform="translate(0.500000, 0.000000)" sketch:type="MSShapeGroup">
                    <path d="M21,14.4931325 L64.0008752,14.4931325 C65.6567179,14.4931325 67,13.1498973 67,11.4929328 L67,8.48333184 C67,6.8320203 65.6572461,5.48313223 64.0008752,5.48313223 L21,5.48313223 C21.4934886,6.89170668 21.7621016,8.40814228 21.7621016,9.98813234 C21.7621016,11.5681224 21.4934886,13.084558 21,14.4931325 Z" id="Rectangle-1"></path>
                    <path d="M9.10430223,6.60953787 L9.10430223,6.60953787 C7.23801225,6.60953787 5.72508529,8.12246483 5.72508529,9.98875482 C5.72508529,11.8550448 7.23801225,13.3679718 9.10430223,13.3679718 C10.9705922,13.3679718 12.4835192,11.8550448 12.4835192,9.98875482 C12.4835192,8.12246483 10.9705922,6.60953787 9.10430223,6.60953787 L9.10430223,6.60953787 Z M9.10430223,0.977509634 L9.10430223,0.977509634 C14.0810755,0.977509634 18.1155474,5.01198153 18.1155474,9.98875482 C18.1155474,14.9655281 14.0810755,19 9.10430223,19 C4.12752894,19 0.0930570474,14.9655281 0.0930570474,9.98875482 C0.0930570474,5.01198153 4.12752894,0.977509634 9.10430223,0.977509634 L9.10430223,0.977509634 Z" id="Shape"></path>
                </g>
            </g>
        </g>
    </g>
</svg>